<svg xmlns="http://www.w3.org/2000/svg" xmlns:xlink="http://www.w3.org/1999/xlink" viewBox="0 0 243.19 115.51"><defs><linearGradient id="a" x1="-8.04" y1="73.97" x2="267.59" y2="73.97" gradientUnits="userSpaceOnUse"><stop offset="0" stop-color="#d7569c"/><stop offset="0.3" stop-color="#d7569c"/><stop offset="0.67" stop-color="#3eb5f1"/><stop offset="1" stop-color="#4d59a1"/></linearGradient><linearGradient id="b" x1="210.45" y1="64.9" x2="421.32" y2="64.9" xlink:href="#a"/></defs><title>logo-films</title><rect x="36.21" y="57.42" width="206.98" height="33.12" style="fill:url(#a)"/><path d="M210.45,86.34c3-.66,22.19-7.52,26.61-9.08l19.67-6.82c11.52-4.08,5.68-1.65,19.78,2,2.17.57,22.93-7.14,26.48-8.39s2.77-1.54,6.53-.26A57.08,57.08,0,0,1,316,66.05L292,82.74c-1.58,1.08-6.45,4.84-8,5.19-1.08,1.49-3.82,2.48-4.88,3.78,3-.57,48.16-16.44,52.92-18.12,20.05-7.08,14.61-6.82,26.86-2.69,10.55,3.56,56.34,19.35,62.43,20.81-1.05-1.27-15.27-10.47-17.78-12.14L349.17,43,344.92,46c-1.57,1.06-2.76,1.91-4.32,3l-8.86,6.13-12.48-8.44c-2.17-1.45-4.12-2.71-6.28-4.17l-5.56-3.85a8.56,8.56,0,0,1-.77-.62L277.37,58.31c-2.8-1.48-10.49-7-13.6-9.07-1,.27-5.51,3.53-6.76,4.39L217.07,81.31c-1.17.77-2,1.47-3.28,2.3S211.14,85,210.45,86.34Z" transform="translate(-180.54 -38.09)" style="fill-rule:evenodd;fill:url(#b)"/><path d="M180.65,88.91h20.13a28,28,0,0,1,12.76,2.78,20.7,20.7,0,0,1,8.61,7.84,24.12,24.12,0,0,1,0,23.55,20.77,20.77,0,0,1-8.61,7.84,28,28,0,0,1-12.76,2.79H180.65Zm19.63,36.28q6.65,0,10.6-3.74t4-10.14q0-6.41-4-10.15t-10.6-3.74h-9.37v27.77Z" transform="translate(-180.54 -38.09)" style="fill:#c09;stroke:#c00d82;stroke-miterlimit:5;stroke-width:0.21484039723873138px"/><path d="M242.62,116.89v11.72H235V116.8L222.25,95.53h8.09l8.8,14.7,8.79-14.7h7.48Z" transform="translate(-180.54 -38.09)" style="fill:#fff"/><path d="M288.47,95.53v33.08h-6.25L265.8,108.53v20.08h-7.52V95.53h6.3L281,115.62V95.53Z" transform="translate(-180.54 -38.09)" style="fill:#fff"/><path d="M318,121.52H302.68l-2.92,7.09H292l14.67-33.08h7.53l14.72,33.08h-8Zm-2.4-5.81L310.35,103l-5.22,12.67Z" transform="translate(-180.54 -38.09)" style="fill:#fff"/><path d="M362.27,128.61l0-19.85-9.69,16.36H349.1l-9.64-15.93v19.42h-7.15V95.53h6.3l12.33,20.56,12.13-20.56h6.26l.09,33.08Z" transform="translate(-180.54 -38.09)" style="fill:#fff"/><path d="M377.23,95.53h7.62v33.08h-7.62Z" transform="translate(-180.54 -38.09)" style="fill:#fff"/><path d="M399.31,127a16.38,16.38,0,0,1-6.4-6.09,17.84,17.84,0,0,1,0-17.63,16.4,16.4,0,0,1,6.4-6.1,18.87,18.87,0,0,1,9.15-2.2,19.12,19.12,0,0,1,7.74,1.51,15.48,15.48,0,0,1,5.8,4.35l-4.89,4.54a10.5,10.5,0,0,0-8.28-3.88,10.93,10.93,0,0,0-5.45,1.35,9.53,9.53,0,0,0-3.74,3.76,11.88,11.88,0,0,0,0,11,9.53,9.53,0,0,0,3.74,3.76,10.93,10.93,0,0,0,5.45,1.35,10.44,10.44,0,0,0,8.28-3.92l4.89,4.53a15.14,15.14,0,0,1-5.83,4.4,19.25,19.25,0,0,1-7.76,1.51A18.79,18.79,0,0,1,399.31,127Z" transform="translate(-180.54 -38.09)" style="fill:#fff"/><path d="M295.26,135.55v5.74h10.05v4H295.26v7.9h-5v-21.7h16.4v4Z" transform="translate(-180.54 -38.09)" style="fill:#39c"/><path d="M310.05,131.52h5v21.7h-5Z" transform="translate(-180.54 -38.09)" style="fill:#39c"/><path d="M320.22,131.52h5v17.61h10.88v4.09h-15.9Z" transform="translate(-180.54 -38.09)" style="fill:#39c"/><path d="M358.69,153.22l0-13-6.39,10.73H350l-6.36-10.45v12.74h-4.71v-21.7h4.15L351.22,145l8-13.49h4.13l.06,21.7Z" transform="translate(-180.54 -38.09)" style="fill:#39c"/><path d="M370.7,152.9a11.66,11.66,0,0,1-3.86-1.82l1.7-3.78a11.84,11.84,0,0,0,3.32,1.65,12.53,12.53,0,0,0,3.85.61,6.19,6.19,0,0,0,3.16-.63,1.92,1.92,0,0,0,1-1.69,1.62,1.62,0,0,0-.6-1.29,4.73,4.73,0,0,0-1.55-.82c-.63-.2-1.49-.43-2.56-.68a33.34,33.34,0,0,1-4.06-1.18,6.48,6.48,0,0,1-2.71-1.89,5.07,5.07,0,0,1-1.14-3.47,6,6,0,0,1,1-3.43,6.9,6.9,0,0,1,3.08-2.43,12.55,12.55,0,0,1,5-.9,16.72,16.72,0,0,1,4.06.5,12,12,0,0,1,3.47,1.42l-1.55,3.82a12.06,12.06,0,0,0-6-1.71,5.68,5.68,0,0,0-3.12.68,2.1,2.1,0,0,0-1,1.8,1.75,1.75,0,0,0,1.17,1.66,18,18,0,0,0,3.55,1.07,33.88,33.88,0,0,1,4.06,1.18,6.66,6.66,0,0,1,2.71,1.86,5,5,0,0,1,1.13,3.44,5.85,5.85,0,0,1-1,3.39,6.94,6.94,0,0,1-3.11,2.44,12.72,12.72,0,0,1-5.06.9A17.92,17.92,0,0,1,370.7,152.9Z" transform="translate(-180.54 -38.09)" style="fill:#39c"/></svg>