<svg xmlns="http://www.w3.org/2000/svg" xmlns:xlink="http://www.w3.org/1999/xlink" viewBox="0 0 2943.08 1677.12"><defs><linearGradient id="a" x1="-97.36" y1="867.35" x2="3238.41" y2="867.35" gradientUnits="userSpaceOnUse"><stop offset="0" stop-color="#d7569c"/><stop offset="0.3" stop-color="#d7569c"/><stop offset="0.67" stop-color="#3eb5f1"/><stop offset="1" stop-color="#4d59a1"/></linearGradient><linearGradient id="b" x1="6056.22" y1="6680.03" x2="8608.23" y2="6680.03" xlink:href="#a"/></defs><title>logo</title><rect x="438.19" y="673.2" width="2504.89" height="388.29" style="fill:url(#a)"/><path d="M6056.22,6931.36c36.57-7.7,268.57-88.19,322.08-106.44l238-79.95c139.49-47.86,68.77-19.35,239.43,23.62,26.29,6.63,277.44-83.81,320.51-98.38,43.89-14.84,33.42-18.16,78.93-3.08,20.39,6.75,62.62,17.94,77.88,26.39l-289.44,195.62c-19.19,12.67-78.07,56.8-97.37,60.88-13.12,17.46-46.17,29-59.05,44.39,36-6.72,582.85-192.83,640.41-212.51,242.73-83,176.86-80,325.06-31.51,127.67,41.75,681.83,226.88,755.56,243.94-12.65-14.85-184.73-122.72-215.13-142.35l-658-429.11-51.41,36c-18.95,12.47-33.36,22.4-52.32,35.13l-107.18,71.89-151-98.89c-26.3-17-49.86-31.82-76-49l-67.4-45a110.49,110.49,0,0,1-9.32-7.33l-354.33,237c-33.83-17.35-126.93-81.88-164.5-106.26-12.26,3.17-66.79,41.33-81.88,51.46l-483.38,324.5c-14.18,9.1-24.43,17.25-39.61,27C6080.93,6909.57,6064.67,6915.77,6056.22,6931.36Z" transform="translate(-5694.32 -6365.65)" style="fill-rule:evenodd;fill:url(#b)"/><path d="M5695.6,6961.47h243.66q87.36,0,154.4,32.64T6197.87,7086q37.16,59.3,37.16,138.08t-37.16,138.07q-37.17,59.3-104.21,91.92t-154.4,32.65H5695.6Zm237.53,425.47q80.46,0,128.35-43.9t47.89-118.93q0-75-47.89-118.94t-128.35-43.9h-113.4v325.67Z" transform="translate(-5694.32 -6365.65)" style="fill:#c09;stroke:#c00d82;stroke-miterlimit:5;stroke-width:2.559190034866333px"/><path d="M6445.54,7288.19v132.28h-92.21V7287.13l-154.27-240H6297L6403.42,7213l106.44-165.89h90.51Z" transform="translate(-5694.32 -6365.65)" style="fill:#fff"/><path d="M7000.54,7047.1v373.37h-75.71l-198.66-226.69v226.69H6635.1V7047.1h76.27l198.09,226.69V7047.1Z" transform="translate(-5694.32 -6365.65)" style="fill:#fff"/><path d="M7357.44,7340.46h-185l-35.3,80h-94.49l177.6-373.37h91.08l178.16,373.37h-96.76Zm-29-65.6-63.18-142.95L7202,7274.86Z" transform="translate(-5694.32 -6365.65)" style="fill:#fff"/><path d="M7893.65,7420.47l-.57-224L7775.82,7381h-41.55l-116.69-179.75v219.22h-86.53V7047.1h76.28l149.14,232,146.86-232H7979l1.14,373.37Z" transform="translate(-5694.32 -6365.65)" style="fill:#fff"/><path d="M8074.66,7047.1h92.21v373.37h-92.21Z" transform="translate(-5694.32 -6365.65)" style="fill:#fff"/><path d="M8341.9,7402.07q-49.25-24.8-77.41-68.81t-28.18-99.47q0-55.47,28.18-99.48t77.41-68.8q49.23-24.81,110.72-24.81,51.78,0,93.63,17.07t70.3,49.07l-59.2,51.21q-40.43-43.74-100.18-43.74-37,0-66,15.2t-45.25,42.41q-16.23,27.19-16.23,61.87t16.23,61.87a112,112,0,0,0,45.25,42.4q29,15.21,66,15.21,59.76,0,100.18-44.28l59.2,51.21q-28.47,32.54-70.58,49.6t-93.92,17.07Q8391.14,7426.87,8341.9,7402.07Z" transform="translate(-5694.32 -6365.65)" style="fill:#fff"/><path d="M6466.07,8042.33a7.39,7.39,0,0,1-2.48.45,3.8,3.8,0,0,1-4.15-4.08,4.05,4.05,0,0,1,4.38-4.17,4.93,4.93,0,0,1,2,.37l-.25.85a4.21,4.21,0,0,0-1.79-.35,3,3,0,0,0-3.25,3.25,3,3,0,0,0,3.12,3.26,3.4,3.4,0,0,0,1.39-.21v-2.41h-1.64v-.84h2.66Z" transform="translate(-5694.32 -6365.65)"/><path d="M6467.67,8034.72a10.77,10.77,0,0,1,2-.17,3.26,3.26,0,0,1,2.33.66,2,2,0,0,1,.64,1.53,2.13,2.13,0,0,1-1.52,2.07v0a2,2,0,0,1,1.18,1.63,13,13,0,0,0,.63,2.22h-1.08a10.51,10.51,0,0,1-.54-1.93c-.24-1.11-.67-1.53-1.62-1.57h-1v3.5h-1.05Zm1.05,3.68h1.06c1.12,0,1.83-.61,1.83-1.54s-.76-1.49-1.86-1.51a4,4,0,0,0-1,.1Z" transform="translate(-5694.32 -6365.65)"/><path d="M6382,7743.58q-34-20.9-53.49-58t-19.47-83.8q0-46.72,19.47-83.79t53.49-58q34-20.89,76.5-20.89,35.77,0,64.7,14.38a132.62,132.62,0,0,1,48.57,41.33l-40.9,43.13q-27.93-36.83-69.23-36.84-25.56,0-45.62,12.81t-31.27,35.72q-11.21,22.9-11.21,52.11t11.21,52.12q11.2,22.92,31.27,35.72t45.62,12.81q41.31,0,69.23-37.3l40.9,43.14a130.57,130.57,0,0,1-48.77,41.78q-29.11,14.37-64.9,14.38Q6416,7764.47,6382,7743.58Z" transform="translate(-5694.32 -6365.65)" style="fill:#39c"/><path d="M6664.76,7743.35q-34.42-21.11-53.89-58.18t-19.47-83.35q0-46.26,19.47-83.34t53.89-58.19q34.41-21.1,77.28-21.11t77.09,21.11q34.21,21.14,53.89,58.19t19.66,83.34q0,46.29-19.66,83.35t-53.89,58.18q-34.22,21.13-77.09,21.12T6664.76,7743.35Zm121.33-53.69q19.66-12.8,30.88-35.72t11.21-52.12q0-29.19-11.21-52.11T6786.09,7514a82.14,82.14,0,0,0-88.1,0q-19.66,12.8-30.87,35.72t-11.21,52.11q0,29.22,11.21,52.12t30.87,35.72a82.14,82.14,0,0,0,88.1,0Z" transform="translate(-5694.32 -6365.65)" style="fill:#39c"/><path d="M7191.21,7759.08l-.4-188.71-81,155.46h-28.71l-80.63-151.41v184.66h-59.79V7444.57h52.71L7096.42,7640l101.47-195.44h52.31l.79,314.51Z" transform="translate(-5694.32 -6365.65)" style="fill:#39c"/><path d="M7499,7458.5a98.78,98.78,0,0,1,41.5,39.54q14.53,25.6,14.55,60.65,0,34.61-14.55,60.43a97,97,0,0,1-41.5,39.54q-26.94,13.71-63.52,13.7H7380v86.72h-63.71V7444.57h119.17Q7472,7444.57,7499,7458.5Zm-23.4,140.4q14.94-14.14,14.94-40.21,0-26.5-14.94-40.66t-43.66-14.15H7380v109.18h51.92Q7460.62,7613.06,7475.57,7598.9Z" transform="translate(-5694.32 -6365.65)" style="fill:#39c"/><path d="M7767.8,7691.68H7640l-24.38,67.4H7550.3L7673,7444.57h62.93l123.11,314.51h-66.86Zm-20.06-55.26L7704.08,7516l-43.65,120.41Z" transform="translate(-5694.32 -6365.65)" style="fill:#39c"/><path d="M8140.27,7444.57v314.51H8088l-137.27-190.95v190.95h-62.93V7444.57h52.7l136.88,191v-191Z" transform="translate(-5694.32 -6365.65)" style="fill:#39c"/><path d="M8337.71,7647.65v111.43H8274V7646.75L8167.4,7444.57h67.65l73.55,139.73,73.56-139.73h62.53Z" transform="translate(-5694.32 -6365.65)" style="fill:#39c"/></svg>