<?xml version="1.0" encoding="iso-8859-1"?>
<!-- Generator: Adobe Illustrator 19.0.0, SVG Export Plug-In . SVG Version: 6.00 Build 0)  -->
<svg xmlns="http://www.w3.org/2000/svg" xmlns:xlink="http://www.w3.org/1999/xlink" version="1.1" id="Capa_1" x="0px" y="0px" viewBox="0 0 512 512" style="enable-background:new 0 0 512 512;" xml:space="preserve" width="" height="">
<g>
	<g>
		<g>
			<path d="M486.4,0H25.6C11.468,0.015,0.015,11.468,0,25.6v460.8c0.015,14.132,11.468,25.585,25.6,25.6h460.8     c14.132-0.015,25.585-11.468,25.6-25.6V25.6C511.985,11.468,500.532,0.015,486.4,0z M494.933,486.4     c-0.003,4.711-3.822,8.53-8.533,8.533H25.6c-4.711-0.003-8.53-3.822-8.533-8.533v-384h477.867V486.4z M494.933,85.333H17.067     V25.6c0.003-4.711,3.822-8.53,8.533-8.533h460.8c4.711,0.003,8.53,3.822,8.533,8.533V85.333z" fill="#FFFFFF"/>
			<path d="M59.733,25.6c-14.138,0-25.6,11.462-25.6,25.6c0.015,14.132,11.468,25.585,25.6,25.6c14.138,0,25.6-11.461,25.6-25.6     S73.872,25.6,59.733,25.6z M59.733,59.733c-4.713,0-8.533-3.82-8.533-8.533c0.003-4.711,3.822-8.53,8.533-8.533     c4.713,0,8.533,3.82,8.533,8.533S64.446,59.733,59.733,59.733z" fill="#FFFFFF"/>
			<path d="M119.467,25.6c-14.138,0-25.6,11.462-25.6,25.6c0.015,14.132,11.468,25.585,25.6,25.6c14.138,0,25.6-11.461,25.6-25.6     S133.605,25.6,119.467,25.6z M119.467,59.733c-4.713,0-8.533-3.82-8.533-8.533c0.003-4.711,3.822-8.53,8.533-8.533     c4.713,0,8.533,3.82,8.533,8.533S124.18,59.733,119.467,59.733z" fill="#FFFFFF"/>
			<path d="M179.2,25.6c-14.138,0-25.6,11.462-25.6,25.6c0.015,14.132,11.468,25.585,25.6,25.6c14.138,0,25.6-11.461,25.6-25.6     S193.339,25.6,179.2,25.6z M179.2,59.733c-4.713,0-8.533-3.82-8.533-8.533c0.003-4.711,3.822-8.53,8.533-8.533     c4.713,0,8.533,3.82,8.533,8.533S183.913,59.733,179.2,59.733z" fill="#FFFFFF"/>
			<path d="M460.8,25.6h-17.067c-9.421,0.012-17.054,7.646-17.067,17.067v17.067c0.012,9.421,7.646,17.054,17.067,17.067H460.8     c9.421-0.012,17.054-7.646,17.067-17.067V42.667C477.854,33.246,470.221,25.612,460.8,25.6z M443.733,59.733V42.667H460.8     l0.017,17.067H443.733z" fill="#FFFFFF"/>
			<path d="M68.267,443.733h102.4V460.8c0.012,9.421,7.646,17.054,17.067,17.067h136.533c9.421-0.012,17.054-7.646,17.067-17.067     v-17.067h102.4c9.421-0.012,17.054-7.646,17.067-17.067v-256c-0.012-9.421-7.646-17.054-17.067-17.067h-102.4v-17.067     c-0.012-9.421-7.646-17.054-17.067-17.067H187.733c-9.421,0.012-17.054,7.646-17.067,17.067V153.6h-102.4     c-9.421,0.012-17.054,7.646-17.067,17.067v256C51.212,436.087,58.846,443.721,68.267,443.733z M341.333,408.027     c2.733,1.012,5.62,1.544,8.533,1.573h51.2c14.138,0,25.6-11.462,25.6-25.6c0-14.138-11.462-25.6-25.6-25.6h-51.2     c-2.914,0.029-5.801,0.561-8.533,1.572v-35.706c4.713,0,8.533-3.82,8.533-8.533s-3.82-8.533-8.533-8.533v-30.212     c20.498,18.451,51.928,17.35,71.085-2.49c19.157-19.84,19.157-51.289,0-71.129s-50.587-20.941-71.085-2.49v-30.212h102.4v256     h-102.4V408.027z M341.333,384c0.003-4.711,3.822-8.53,8.533-8.533h51.2c4.713,0,8.533,3.82,8.533,8.533s-3.82,8.533-8.533,8.533     h-51.2C345.155,392.53,341.337,388.711,341.333,384z M341.333,238.933c0-18.851,15.282-34.133,34.133-34.133     s34.133,15.282,34.133,34.133s-15.282,34.133-34.133,34.133C356.623,273.048,341.352,257.777,341.333,238.933z M187.733,136.533     h136.533l0.002,25.593l-0.002,0.007l0.002,0.007l0.004,76.69l-0.005,0.104l0.005,0.104l0.004,76.65l-0.009,0.046l0.009,0.046     l0.003,68.095L324.267,384l0.013,0.126l0.003,50.998l-0.015,0.076l0.015,0.076l0.002,25.524h-136.55V136.533z M68.267,170.667     h102.4v30.212c-20.499-18.451-51.928-17.35-71.085,2.49c-19.157,19.84-19.157,51.289,0,71.129     c19.157,19.84,50.587,20.941,71.085,2.49V307.2h-34.133c-4.713,0-8.533,3.82-8.533,8.533s3.82,8.533,8.533,8.533h34.133v35.706     c-2.733-1.012-5.62-1.544-8.533-1.572h-51.2c-14.138,0-25.6,11.462-25.6,25.6c0,14.138,11.462,25.6,25.6,25.6h51.2     c2.914-0.029,5.801-0.561,8.533-1.572v18.639h-102.4V170.667z M170.667,238.933c0,18.851-15.282,34.133-34.133,34.133     S102.4,257.785,102.4,238.933s15.282-34.133,34.133-34.133C155.377,204.819,170.648,220.09,170.667,238.933z M170.667,384     c-0.003,4.711-3.822,8.53-8.533,8.533h-51.2c-4.713,0-8.533-3.82-8.533-8.533s3.82-8.533,8.533-8.533h51.2     C166.845,375.47,170.663,379.289,170.667,384z" fill="#FFFFFF"/>
			<path d="M225.55,219.467l-4.342,26.625c-0.526,3.225,0.836,6.467,3.508,8.349c2.671,1.882,6.183,2.073,9.042,0.493L256,242.642     l22.242,12.292c2.859,1.583,6.371,1.392,9.042-0.492c2.669-1.884,4.031-5.125,3.508-8.35l-4.342-26.625l18.325-18.783     c2.233-2.289,2.998-5.634,1.984-8.666c-1.015-3.032-3.64-5.242-6.8-5.726l-24.983-3.817l-11.25-23.967     c-1.406-2.995-4.416-4.908-7.725-4.908c-3.309,0-6.319,1.913-7.725,4.908l-11.25,23.967l-24.983,3.817     c-3.161,0.484-5.785,2.694-6.8,5.726c-1.015,3.032-0.249,6.377,1.984,8.666L225.55,219.467z M244.108,198.658     c2.812-0.429,5.225-2.233,6.433-4.808L256,182.217l5.458,11.633c1.208,2.576,3.621,4.379,6.433,4.808l13.067,2l-9.733,9.975     c-1.891,1.939-2.751,4.66-2.317,7.333l2.208,13.533l-10.992-6.075c-2.566-1.422-5.684-1.422-8.25,0l-10.992,6.075l2.208-13.533     c0.434-2.673-0.426-5.394-2.317-7.333l-9.733-9.975L244.108,198.658z" fill="#FFFFFF"/>
			<path d="M213.333,290.133h8.533c4.713,0,8.533-3.82,8.533-8.533s-3.82-8.533-8.533-8.533h-8.533     c-4.713,0-8.533,3.821-8.533,8.533S208.621,290.133,213.333,290.133z" fill="#FFFFFF"/>
			<path d="M298.667,273.067H256c-4.713,0-8.533,3.821-8.533,8.533s3.82,8.533,8.533,8.533h42.667c4.713,0,8.533-3.82,8.533-8.533     S303.38,273.067,298.667,273.067z" fill="#FFFFFF"/>
			<path d="M213.333,324.267h8.533c4.713,0,8.533-3.82,8.533-8.533s-3.82-8.533-8.533-8.533h-8.533c-4.713,0-8.533,3.82-8.533,8.533     S208.621,324.267,213.333,324.267z" fill="#FFFFFF"/>
			<path d="M298.667,307.2H256c-4.713,0-8.533,3.82-8.533,8.533s3.82,8.533,8.533,8.533h42.667c4.713,0,8.533-3.82,8.533-8.533     S303.38,307.2,298.667,307.2z" fill="#FFFFFF"/>
			<path d="M213.333,358.4h8.533c4.713,0,8.533-3.82,8.533-8.533s-3.82-8.533-8.533-8.533h-8.533c-4.713,0-8.533,3.82-8.533,8.533     S208.621,358.4,213.333,358.4z" fill="#FFFFFF"/>
			<path d="M298.667,341.333H256c-4.713,0-8.533,3.82-8.533,8.533s3.82,8.533,8.533,8.533h42.667c4.713,0,8.533-3.82,8.533-8.533     S303.38,341.333,298.667,341.333z" fill="#FFFFFF"/>
			<path d="M281.6,392.533h-51.2c-14.138,0-25.6,11.462-25.6,25.6s11.462,25.6,25.6,25.6h51.2c14.138,0,25.6-11.461,25.6-25.6     S295.738,392.533,281.6,392.533z M281.6,426.667h-51.2c-4.713,0-8.533-3.82-8.533-8.533s3.82-8.533,8.533-8.533h51.2     c4.713,0,8.533,3.82,8.533,8.533S286.313,426.667,281.6,426.667z" fill="#FFFFFF"/>
			<path d="M93.867,324.267h8.533c4.713,0,8.533-3.82,8.533-8.533s-3.82-8.533-8.533-8.533h-8.533c-4.713,0-8.533,3.82-8.533,8.533     S89.154,324.267,93.867,324.267z" fill="#FFFFFF"/>
			<path d="M418.133,307.2h-42.667c-4.713,0-8.533,3.82-8.533,8.533s3.82,8.533,8.533,8.533h42.667c4.713,0,8.533-3.82,8.533-8.533     S422.846,307.2,418.133,307.2z" fill="#FFFFFF"/>
		</g>
	</g>
</g>
<g>
</g>
<g>
</g>
<g>
</g>
<g>
</g>
<g>
</g>
<g>
</g>
<g>
</g>
<g>
</g>
<g>
</g>
<g>
</g>
<g>
</g>
<g>
</g>
<g>
</g>
<g>
</g>
<g>
</g>
</svg>
