<?xml version="1.0"?>
<svg xmlns="http://www.w3.org/2000/svg" height="" viewBox="-11 0 512 512" width=""><path d="m321.402344 391.003906h-195.136719c-5.523437 0-10-4.476562-10-10 0-5.519531 4.476563-10 10-10h195.136719c5.523437 0 10 4.480469 10 10 0 5.523438-4.476563 10-10 10zm0 0" fill="#FFFFFF"/><path d="m363.742188 391.011719c-.660157 0-1.3125-.070313-1.960938-.203125-.640625-.128906-1.261719-.316406-1.871094-.566406-.597656-.25-1.179687-.5625-1.71875-.921876-.550781-.371093-1.058594-.78125-1.53125-1.25-.460937-.460937-.871094-.96875-1.238281-1.511718-.359375-.546875-.671875-1.128906-.921875-1.726563-.25-.601562-.4375-1.230469-.570312-1.871093-.128907-.648438-.1875-1.300782-.1875-1.949219 0-.660157.058593-1.3125.1875-1.960938.132812-.640625.320312-1.269531.570312-1.871093.25-.597657.5625-1.179688.921875-1.726563.367187-.542969.777344-1.050781 1.238281-1.511719.472656-.46875.980469-.878906 1.519532-1.25.550781-.359375 1.132812-.671875 1.730468-.921875.601563-.25 1.230469-.4375 1.871094-.566406 1.289062-.261719 2.621094-.261719 3.910156 0 .640625.128906 1.269532.316406 1.871094.566406.597656.25 1.179688.5625 1.726562.921875.542969.371094 1.0625.78125 1.523438 1.25.457031.460938.878906.96875 1.238281 1.511719.359375.550781.671875 1.128906.921875 1.726563.25.601562.4375 1.230468.566406 1.871093.132813.648438.191407 1.300781.191407 1.960938 0 .648437-.058594 1.300781-.191407 1.949219-.128906.640624-.316406 1.269531-.566406 1.871093-.25.597657-.5625 1.179688-.921875 1.726563-.359375.542968-.78125 1.050781-1.238281 1.511718-.460938.46875-.980469.878907-1.523438 1.25-.546874.359376-1.128906.671876-1.726562.921876-.601562.25-1.230469.4375-1.871094.566406s-1.300781.203125-1.949218.203125zm0 0" fill="#FFFFFF"/><path d="m245 489.496094c-16.539062 0-30-13.457032-30-30 0-16.542969 13.460938-30 30-30 16.542969 0 30 13.457031 30 30 0 16.542968-13.457031 30-30 30zm0-40c-5.511719 0-10 4.488281-10 10 0 5.515625 4.488281 10 10 10 5.515625 0 10-4.484375 10-10 0-5.511719-4.484375-10-10-10zm0 0" fill="#FFFFFF"/><path d="m245 173.371094c-25.417969 0-46.101562-20.679688-46.101562-46.101563s20.679687-46.101562 46.101562-46.101562 46.101562 20.683593 46.101562 46.101562c0 25.421875-20.679687 46.101563-46.101562 46.101563zm0-72.203125c-14.390625 0-26.101562 11.710937-26.101562 26.101562 0 14.394531 11.710937 26.101563 26.101562 26.101563 14.394531 0 26.101562-11.707032 26.101562-26.101563 0-14.390625-11.707031-26.101562-26.101562-26.101562zm0 0" fill="#FFFFFF"/><path d="m459.828125 90.65625h-140.296875c-19.738281-48.015625-65.6875-86.34375-68.152344-88.375-3.695312-3.042969-9.023437-3.042969-12.71875 0-2.46875 2.03125-48.441406 40.359375-68.1875 88.375h-140.300781c-16.636719 0-30.171875 13.535156-30.171875 30.175781v351.226563c0 22.023437 17.917969 39.941406 39.941406 39.941406h410.117188c22.027344 0 39.945312-17.917969 39.945312-39.941406v-351.226563c0-16.640625-13.539062-30.175781-30.175781-30.175781zm-137.332031 99.230469 23.492187 26.300781-10.964843 44.226562-20.65625-10.347656c2.140624-15.167968 5.328124-38.210937 8.128906-60.179687zm-11.761719 80.730469 18.847656 9.4375c-10.683593 4.296874-19.609375 12.117187-25.269531 22.253906-6.664062-3.710938-14.109375-5.871094-21.890625-6.296875 4.628906-6.25 9.171875-13.101563 13.144531-20.324219h6.46875c3.691406 0 6.96875-2.015625 8.699219-5.070312zm-92.960937 5.070312h54.449218c-9.285156 14.152344-20.335937 26.175781-27.226562 33.117188-6.886719-6.929688-17.929688-18.9375-27.222656-33.117188zm27.25-252.328125c17.214843 15.871094 63.390624 62.722656 63.390624 108.632813 0 14.671874-9.28125 83.105468-14.523437 120.039062-.464844 1.195312-.6875 2.433594-.683594 3.65625h-96.414062c.003906-1.222656-.21875-2.460938-.683594-3.652344-5.242187-36.9375-14.523437-105.371094-14.523437-120.046875 0-45.816406 46.222656-92.746093 63.4375-108.628906zm-57.058594 252.328125h6.472656c3.96875 7.222656 8.515625 14.074219 13.140625 20.324219-7.78125.425781-15.222656 2.585937-21.890625 6.296875-5.65625-10.136719-14.582031-17.957032-25.265625-22.253906l18.84375-9.4375c1.730469 3.054687 5.007813 5.070312 8.699219 5.070312zm-12.328125-25.621094-20.660157 10.347656-10.585937-42.710937 24.484375-17.222656c2.425781 18.546875 4.964844 36.84375 6.761719 49.585937zm-155.636719-129.234375c0-5.609375 4.5625-10.175781 10.171875-10.175781h133.890625c-1.488281 6.582031-2.363281 13.269531-2.464844 20h-111.597656c-5.523438 0-10 4.480469-10 10v266.675781h-20zm450.003906 351.226563c0 10.996094-8.949218 19.941406-19.945312 19.941406h-410.117188c-10.996094 0-19.941406-8.945312-19.941406-19.941406v-44.730469h343.738281c5.523438 0 10-4.476563 10-10 0-5.519531-4.476562-10-10-10h-303.738281v-256.671875h102.914062c.789063 7.894531 1.875 17.332031 3.109376 27.375l-38.742188 27.253906c-3.375 2.375-4.941406 6.578125-3.949219 10.585938l15.015625 60.582031c-26.746094 1.507813-48.042968 23.742187-48.042968 50.859375 0 8.210938 2.003906 16.378906 5.796874 23.613281 2.5625 4.894531 8.609376 6.777344 13.5 4.214844 4.890626-2.5625 6.777344-8.605469 4.214844-13.496094-2.328125-4.445312-3.511718-9.269531-3.511718-14.332031 0-17.0625 13.878906-30.941406 30.941406-30.941406 14.324218 0 27.015625 10.121094 30.175781 24.0625.808594 3.570312 3.503906 6.414062 7.023437 7.414062 3.519532.996094 7.308594-.007812 9.871094-2.625 5.867188-5.988281 13.714844-9.285156 22.097656-9.285156 10.652344 0 20.425782 5.375 26.144532 14.382812 1.835937 2.890626 5.019531 4.640626 8.441406 4.640626s6.609375-1.75 8.441406-4.640626c5.71875-9.007812 15.496094-14.382812 26.144532-14.382812 8.382812 0 16.230468 3.296875 22.101562 9.285156 2.558594 2.613282 6.34375 3.621094 9.867188 2.625 3.523437-1 6.21875-3.84375 7.027343-7.414062 3.160157-13.941406 15.851563-24.0625 30.175781-24.0625 17.058594 0 30.9375 13.878906 30.9375 30.941406 0 5.0625-1.179687 9.886719-3.511718 14.332031-2.5625 4.890625-.675782 10.933594 4.21875 13.496094 1.480468.777344 3.066406 1.144531 4.632812 1.144531 3.601563 0 7.078125-1.949218 8.863282-5.359375 3.792968-7.234375 5.796874-15.402343 5.796874-23.613281 0-27.117188-21.296874-49.351562-48.042968-50.859375l15.019531-60.582031c.792969-3.207032-.046875-6.601563-2.25-9.066406l-38.714844-43.339844c.519531-4.574219.984375-8.882813 1.378907-12.808594h102.914062v256.675781h-12.605469c-5.523437 0-10 4.476563-10 10 0 5.523438 4.476563 10 10 10h52.605469v44.726563zm0-64.726563h-20v-266.675781c0-5.519531-4.480468-10-10-10h-111.597656c-.105469-6.730469-.976562-13.417969-2.46875-20h133.890625c5.609375 0 10.175781 4.566406 10.175781 10.175781zm0 0" fill="#FFFFFF"/></svg>
