<?xml version="1.0" encoding="iso-8859-1"?>
<!-- Generator: Adobe Illustrator 19.0.0, SVG Export Plug-In . SVG Version: 6.00 Build 0)  -->
<svg xmlns="http://www.w3.org/2000/svg" xmlns:xlink="http://www.w3.org/1999/xlink" version="1.1" id="Layer_1" x="0px" y="0px" viewBox="0 0 512.16 512.16" style="enable-background:new 0 0 512.16 512.16;" xml:space="preserve" width="" height="">
<g>
	<g>
		<g>
			<path d="M452.032,0H60.128C27.104-0.016,0.08,27.008,0.08,60.048v34.464v270.08c0,33.024,27.024,60.048,60.048,60.048h79.632     l87.52,87.52l87.312-87.52h137.44c33.024,0,60.048-27.024,60.048-60.048V94.496V60.048C512.08,27.024,485.056,0,452.032,0z      M227.264,489.52l-145.6-145.6l185.792-185.792l128.848,16.768l16.304,128.816L227.264,489.52z M496.08,364.576     c0,24.288-19.76,44.048-44.048,44.048H330.544l98.928-99.168l-18.848-148.848l-148.912-19.376L59.04,343.92l64.72,64.72H60.128     c-24.288,0-44.048-19.76-44.048-44.064V94.496h480V364.576z M496.08,78.512h-480V60.048C16.08,35.76,35.84,16,60.128,16h391.904     c24.288-0.016,44.048,19.744,44.048,44.048V78.512z" fill="#FFFFFF"/>
			<circle cx="58.48" cy="47.248" r="13.424" fill="#FFFFFF"/>
			<circle cx="96.72" cy="47.248" r="13.424" fill="#FFFFFF"/>
			<circle cx="134.976" cy="47.248" r="13.424" fill="#FFFFFF"/>
			<polygon points="445.36,31.952 454.896,42.896 429.472,42.896 429.472,50.896 455.488,50.896 445.36,62.544 451.392,67.792      469.296,47.248 451.392,26.704    " fill="#FFFFFF"/>
			<path d="M379.344,25.872H208.416c-11.744,0-21.36,9.616-21.36,21.36c0,11.744,9.616,21.36,21.36,21.36h170.928     c11.744,0,21.36-9.616,21.36-21.36C400.72,35.488,391.104,25.872,379.344,25.872z M379.344,52.608H208.416     c-2.912,0-5.36-2.464-5.36-5.36s2.464-5.36,5.36-5.36h170.928c2.912,0,5.36,2.464,5.36,5.36S382.256,52.608,379.344,52.608z" fill="#FFFFFF"/>
			<path d="M334.128,210.784c-14.512,0-26.288,11.76-26.288,26.288s11.776,26.288,26.288,26.288     c14.512,0,26.288-11.76,26.288-26.288S348.64,210.784,334.128,210.784z M334.128,247.36c-5.664,0-10.288-4.608-10.288-10.288     s4.608-10.288,10.288-10.288c5.664,0,10.288,4.608,10.288,10.288S339.792,247.36,334.128,247.36z" fill="#FFFFFF"/>
			<path d="M275.424,332.176c-6.656-6.656-13.936-9.872-22.592-9.872c-7.296,0-15.568,2.272-25.296,6.688     c-9.776,4.208-16.608,6.528-21.744,6.528c-3.472,0-6.16-1.072-8.448-3.36c-4.688-4.688-6.208-13.088,3.456-22.752     c9.376-9.376,18.608-12.272,23.44-14.08l-8.976-16.416c-6.624,2.192-14.624,6.048-23.584,14.496l-12.832-12.832l-11.312,11.312     l13.52,13.52c-11.44,16.4-10.624,33.792,1.232,45.632c6.144,6.144,13.008,8.72,20.672,8.72c8.336,0,17.616-3.056,27.888-7.872     c7.488-3.488,13.504-5.344,18.432-5.344c4.224,0,7.648,1.36,10.528,4.24c6.624,6.624,4.976,16.832-3.712,25.52     c-8.416,8.416-19.04,13.232-27.6,15.456l9.232,16.672c8.288-1.648,19.456-7.872,28.416-16.272l13.376,13.376l11.312-11.312     l-14.208-14.208C289.344,362.384,287.12,343.888,275.424,332.176z" fill="#FFFFFF"/>
		</g>
	</g>
</g>
<g>
</g>
<g>
</g>
<g>
</g>
<g>
</g>
<g>
</g>
<g>
</g>
<g>
</g>
<g>
</g>
<g>
</g>
<g>
</g>
<g>
</g>
<g>
</g>
<g>
</g>
<g>
</g>
<g>
</g>
</svg>
